<svg xmlns="http://www.w3.org/2000/svg" viewBox="0 0 243.8 277.2"><path d="M185.1 229.5l38.2 30.4v17.3h21v-21h-17.6l-38.1-30.3c13.5-14.8 22.2-34 23.5-55.2h-19.6c-2.7 34.4-30.3 61.9-64.7 64.7V255c22.2-1.4 42.3-10.8 57.3-25.5zm43.2 31.6h11v11h-11v-11z" fill="#fff"/><path d="M17.6 256.3H0v21h21V260l38.2-30.5c15 14.6 35.1 24.1 57.3 25.5v-19.7c-34.4-2.7-61.9-30.3-64.7-64.7H32.2c1.3 21.2 10 40.5 23.5 55.2l-38.1 30.5zM5 261.2h11v11H5v-11z" fill="#9e9e9e"/><path d="M32.1 159.4h19.6c2.9-36.3 33.4-65 70.4-65s67.5 28.7 70.4 65h19.6c-2.9-46.3-40.8-83.2-87.5-84.4V21h8V0h-21v21h8v54C73 76.2 35 113.1 32.1 159.4zM116.6 16V5h11v11h-11z" fill="#fdd778"/></svg>