<svg xmlns="http://www.w3.org/2000/svg" viewBox="0 0 243.3 344"><path d="M149.8 250.2c7.5-2.5 14.5-5.9 20.9-10l-11.5-15.8c-4.7 3-9.9 5.5-15.5 7.3-20.3 6.7-41.6 3.6-58.6-6.7l-11.4 15.9c13.5 8.5 29.2 13.4 45.4 13.8V323h-8v21h21v-21h-8v-68.3c8.6-.2 17.2-1.7 25.7-4.5zM127.1 328v11h-11v-11h11z" fill="#bcbcbc"/><path d="M207.1 136.6c-12.2-37-46.1-60.7-83-61.8V21h8V0h-21v21h8v53.8c-8.5.2-17.2 1.7-25.7 4.5C48.1 94.2 22.6 142 34.5 187.5l18.5-6.1c-8.6-35.3 11.3-72 46.5-83.6 36.9-12.2 76.9 8 89 44.9 4.3 13 4.6 26.4 1.5 38.8l18.6 6c4.4-16.3 4.1-33.9-1.5-50.9zM116.1 16V5h11v11h-11z" fill="#f4d77d"/><path d="M225.7 256.1l-34.6-34.4c5.8-7.1 10.5-15 13.9-23.5l-18.6-6c-4.1 9.7-10.3 18.4-18.3 25.4l11.5 15.8c.5-.4 1-.9 1.5-1.4l3.7-3.3c1.1-1 2.1-2.1 3.1-3.2l34.4 34.3v17.3h21v-21h-17.6zm12.7 16.1h-11v-11h11v11z" fill="#9e9e9e"/><path d="M0 256.1v21h21v-17.3l34.4-34.3c1 1.1 2 2.2 3.1 3.2l3.7 3.3c.5.5 1 1 1.5 1.4l11.5-15.8c-8-7-14.2-15.7-18.3-25.4l-18.6 6c3.4 8.5 8.1 16.4 13.9 23.5l-34.6 34.5v-.1H0zm4.9 5.1h11v11h-11v-11z" fill="#fff"/></svg>