<svg xmlns="http://www.w3.org/2000/svg" xmlns:xlink="http://www.w3.org/1999/xlink" width="939" height="120"><defs><path id="a" d="M820 533v-5h95v5z"/><path id="b" d="M680 533v-5h95v5z"/><path id="c" d="M820 533v-80h5v80z"/><path id="d" d="M805 573V453h5v120z"/><path id="e" d="M770 573v-45h5v45z"/><path id="f" d="M805 458v-5h20v5z"/><path id="g" d="M770 573v-5h40v5z"/><path id="h" d="M585 533v-5h95v5z"/><path id="i" d="M445 533v-5h95v5z"/><path id="j" d="M585 533v-80h5v80z"/><path id="k" d="M570 573V453h5v120z"/><path id="l" d="M535 573v-45h5v45z"/><path id="m" d="M570 458v-5h20v5z"/><path id="n" d="M535 573v-5h40v5z"/><path id="o" d="M350 533v-5h95v5z"/><path id="p" d="M210 533v-5h95v5z"/><path id="q" d="M350 533v-80h5v80z"/><path id="r" d="M335 573V453h5v120z"/><path id="s" d="M300 573v-45h5v45z"/><path id="t" d="M335 458v-5h20v5z"/><path id="u" d="M300 573v-5h40v5z"/><path id="v" d="M116 533v-5h95v5z"/><path id="w" d="M-24 533v-5h95v5z"/><path id="x" d="M116 533v-80h5v80z"/><path id="y" d="M101 573V453h5v120z"/><path id="z" d="M66 573v-45h5v45z"/><path id="A" d="M101 458v-5h20v5z"/><path id="B" d="M66 573v-5h40v5z"/></defs><use fill="#ffd62c" xlink:href="#a" transform="translate(24 -453)"/><use fill="#ffd62c" xlink:href="#b" transform="translate(24 -453)"/><use fill="#ffd62c" xlink:href="#c" transform="translate(24 -453)"/><use fill="#ffd62c" xlink:href="#d" transform="translate(24 -453)"/><use fill="#ffd62c" xlink:href="#e" transform="translate(24 -453)"/><use fill="#ffd62c" xlink:href="#f" transform="translate(24 -453)"/><use fill="#ffd62c" xlink:href="#g" transform="translate(24 -453)"/><g fill="#ffd62c" transform="translate(24 -453)"><use xlink:href="#h"/><use xlink:href="#i"/><use xlink:href="#j"/><use xlink:href="#k"/><use xlink:href="#l"/><use xlink:href="#m"/><use xlink:href="#n"/></g><g fill="#ffd62c" transform="translate(24 -453)"><use xlink:href="#o"/><use xlink:href="#p"/><use xlink:href="#q"/><use xlink:href="#r"/><use xlink:href="#s"/><use xlink:href="#t"/><use xlink:href="#u"/></g><g fill="#ffd62c" transform="translate(24 -453)"><use xlink:href="#v"/><use xlink:href="#w"/><use xlink:href="#x"/><use xlink:href="#y"/><use xlink:href="#z"/><use xlink:href="#A"/><use xlink:href="#B"/></g></svg>