<?xml version="1.0" encoding="utf-8"?>
<!-- Generator: Adobe Illustrator 21.0.0, SVG Export Plug-In . SVG Version: 6.00 Build 0)  -->
<svg version="1.1" id="Слой_1" xmlns="http://www.w3.org/2000/svg" xmlns:xlink="http://www.w3.org/1999/xlink" x="0px" y="0px"
	 viewBox="0 0 244.3 251.1" style="enable-background:new 0 0 244.3 251.1;" xml:space="preserve">
<style type="text/css">
	.st0{fill:#FFFFFF;}
	.st1{fill:#9E9E9E;}
	.st2{fill:#F4D77D;}
</style>
<g>
	<path class="st0" d="M185.1,195.6l38.2,38.2v17.3h21v-21h-17.6L188.6,192c13.5-14.8,22.2-34,23.5-55.2h-19.6
		c-2.7,34.4-30.3,61.9-64.7,64.7v19.6C150,219.7,170.1,210.3,185.1,195.6z M228.3,235.1h11v11h-11V235.1z"/>
	<path class="st1" d="M0,230.1l0,21h21v-17.3l38.2-38.2c15,14.6,35.1,24.1,57.3,25.5v-19.6c-34.4-2.7-61.9-30.3-64.7-64.7H32.2
		c1.3,21.2,10,40.5,23.5,55.2l-38.1,38.1H0z M5,235.1h11v11H5V235.1z"/>
	<path class="st2" d="M32.1,125.5h19.6c2.9-36.3,33.4-65,70.4-65s67.5,28.7,70.4,65h19.6c-2.9-46.3-40.8-83.2-87.5-84.4V21h8V0
		l-21,0v21h8v20.1C73,42.3,35,79.2,32.1,125.5z M116.6,16V5h11v11H116.6z"/>
</g>
</svg>
