<?xml version="1.0" encoding="utf-8"?>
<!-- Generator: Adobe Illustrator 21.0.0, SVG Export Plug-In . SVG Version: 6.00 Build 0)  -->
<svg version="1.1" id="Слой_1" xmlns="http://www.w3.org/2000/svg" xmlns:xlink="http://www.w3.org/1999/xlink" x="0px" y="0px"
	 viewBox="0 0 240 281" style="enable-background:new 0 0 240 281;" xml:space="preserve">
<style type="text/css">
	.st0{fill:#FADC63;}
</style>
<path class="st0" d="M122,41V21h8V0h-21v21h8v20C52.2,42.6,0,95.8,0,161c0,66.2,53.8,120,120,120c66.2,0,120-53.8,120-120
	C240,95.5,187.2,42.1,122,41z M114,5h11v11h-11V5z M120,255c-51.8,0-94-42.2-94-94c0-51.8,42.2-94,94-94c51.8,0,94,42.2,94,94
	C214,212.8,171.8,255,120,255z"/>
</svg>
