<?xml version="1.0" encoding="utf-8"?>
<!-- Generator: Adobe Illustrator 21.0.0, SVG Export Plug-In . SVG Version: 6.00 Build 0)  -->
<svg version="1.1" id="Слой_1" xmlns="http://www.w3.org/2000/svg" xmlns:xlink="http://www.w3.org/1999/xlink" x="0px" y="0px"
	 viewBox="0 0 243.3 344" style="enable-background:new 0 0 243.3 344;" xml:space="preserve">
<style type="text/css">
	.st0{fill:#BCBCBC;}
	.st1{fill:#F4D77D;}
	.st2{fill:#9E9E9E;}
	.st3{fill:#FFFFFF;}
</style>
<g>
	<path class="st0" d="M149.8,250.2c7.5-2.5,14.5-5.9,20.9-10l-11.5-15.8c-4.7,3-9.9,5.5-15.5,7.3c-20.3,6.7-41.6,3.6-58.6-6.7
		l-11.4,15.9c13.5,8.5,29.2,13.4,45.4,13.8V323h-8v21h21v-21h-8v-68.3C132.7,254.5,141.3,253,149.8,250.2z M127.1,328v11h-11v-11
		H127.1z"/>
	<path class="st1" d="M207.1,136.6c-12.2-37-46.1-60.7-83-61.8V21h8V0h-21v21h8v53.8c-8.5,0.2-17.2,1.7-25.7,4.5
		C48.1,94.2,22.6,142,34.5,187.5l18.5-6.1c-8.6-35.3,11.3-72,46.5-83.6c36.9-12.2,76.9,8,89,44.9c4.3,13,4.6,26.4,1.5,38.8l18.6,6
		C213,171.2,212.7,153.6,207.1,136.6z M116.1,16V5h11v11H116.1z"/>
	<path class="st2" d="M225.7,256.1L225.7,256.1l-34.6-34.4c5.8-7.1,10.5-15,13.9-23.5l-18.6-6c-4.1,9.7-10.3,18.4-18.3,25.4
		l11.5,15.8c0.5-0.4,1-0.9,1.5-1.4l3.7-3.3c1.1-1,2.1-2.1,3.1-3.2l34.4,34.3v17.3h21v-21H225.7z M238.4,272.2h-11v-11h11V272.2z"/>
	<path class="st3" d="M0,256.1l0,21h21v-17.3l34.4-34.3c1,1.1,2,2.2,3.1,3.2l3.7,3.3c0.5,0.5,1,1,1.5,1.4l11.5-15.8
		c-8-7-14.2-15.7-18.3-25.4l-18.6,6c3.4,8.5,8.1,16.4,13.9,23.5l-34.6,34.5v-0.1H0z M4.9,261.2h11v11h-11V261.2z"/>
</g>
</svg>
