<?xml version="1.0" encoding="utf-8"?>
<!-- Generator: Adobe Illustrator 21.0.0, SVG Export Plug-In . SVG Version: 6.00 Build 0)  -->
<svg version="1.1" id="Слой_1" xmlns="http://www.w3.org/2000/svg" xmlns:xlink="http://www.w3.org/1999/xlink" x="0px" y="0px"
	 viewBox="0 0 221 292" style="enable-background:new 0 0 221 292;" xml:space="preserve">
<style type="text/css">
	.st0{fill:#BCBCBC;}
	.st1{fill:#9E9E9E;}
	.st2{fill:#FFFFFF;}
	.st3{fill:#F4D77D;}
</style>
<g>
	<path class="st0" d="M138,216.1c7.5-2.5,14.5-5.9,20.9-10l-11.5-15.8c-4.7,3-9.9,5.5-15.5,7.3c-20.3,6.7-41.6,3.6-58.6-6.7
		l-11.4,15.9c13.5,8.5,29.2,13.4,45.4,13.8V271h-8v21h21v-21h-8v-50.4C120.9,220.4,129.5,218.9,138,216.1z M115.3,276v11h-11v-11
		H115.3z"/>
	<path class="st1" d="M203.3,224.8l-30.2-30.2c8.8-8.7,15.6-19.1,20.2-30.5l-18.6-6c-4.1,9.7-10.3,18.4-18.3,25.4l11.5,15.8
		c0.5-0.4,1-0.9,1.5-1.4l30.5,30.5v17.3h21v-21H203.3z M216,240.8h-11v-11h11V240.8z"/>
	<path class="st2" d="M52.7,200.1l11.4-15.9c-8.2-7-14.9-15.8-19.2-26.3l-18.5,6.1c4.8,12,12,22.5,20.9,31.1l-29.5,29.5H0v21h21
		v-17.3l29.9-29.9C51.5,199.1,52.1,199.6,52.7,200.1z M16,240.8H5v-11h11V240.8z"/>
	<path class="st3" d="M195.3,102.5c-12.2-37-46.1-60.7-83-61.8V21h8V0h-21v21h8v19.7c-8.5,0.2-17.2,1.7-25.7,4.5
		c-45.3,14.9-70.8,62.7-58.9,108.2l18.5-6.1c-8.6-35.3,11.3-72,46.5-83.6c36.9-12.2,76.9,8,89,44.9c4.3,13,4.6,26.4,1.5,38.8l18.6,6
		C201.2,137.1,200.9,119.5,195.3,102.5z M104.3,16V5h11v11H104.3z"/>
</g>
</svg>
