<?xml version="1.0" encoding="utf-8"?>
<!-- Generator: Adobe Illustrator 21.0.0, SVG Export Plug-In . SVG Version: 6.00 Build 0)  -->
<svg version="1.1" id="Слой_1" xmlns="http://www.w3.org/2000/svg" xmlns:xlink="http://www.w3.org/1999/xlink" x="0px" y="0px"
	 viewBox="0 0 243.8 277.2" style="enable-background:new 0 0 243.8 277.2;" xml:space="preserve">
<style type="text/css">
	.st0{fill:#FFFFFF;}
	.st1{fill:#9E9E9E;}
	.st2{fill:#FDD778;}
</style>
<g>
	<path class="st0" d="M185.1,229.5l38.2,30.4v17.3h21v-21h-17.6l-38.1-30.3c13.5-14.8,22.2-34,23.5-55.2h-19.6
		c-2.7,34.4-30.3,61.9-64.7,64.7V255C150,253.6,170.1,244.2,185.1,229.5z M228.3,261.1h11v11h-11V261.1z"/>
	<path class="st1" d="M17.6,256.3H0l0,21h21V260l38.2-30.5c15,14.6,35.1,24.1,57.3,25.5v-19.7c-34.4-2.7-61.9-30.3-64.7-64.7H32.2
		c1.3,21.2,10,40.5,23.5,55.2L17.6,256.3L17.6,256.3z M5,261.2h11v11H5V261.2z"/>
	<path class="st2" d="M32.1,159.4h19.6c2.9-36.3,33.4-65,70.4-65s67.5,28.7,70.4,65h19.6c-2.9-46.3-40.8-83.2-87.5-84.4V21h8V0
		l-21,0v21h8v54C73,76.2,35,113.1,32.1,159.4z M116.6,16V5h11v11H116.6z"/>
</g>
</svg>
