<?xml version="1.0" encoding="utf-8"?>
<!-- Generator: Adobe Illustrator 21.0.0, SVG Export Plug-In . SVG Version: 6.00 Build 0)  -->
<svg version="1.1" id="Слой_1" xmlns="http://www.w3.org/2000/svg" xmlns:xlink="http://www.w3.org/1999/xlink" x="0px" y="0px"
	 viewBox="0 0 450 200" style="enable-background:new 0 0 450 200;" xml:space="preserve">
<style type="text/css">
	.st0{fill:#FFD600;}
	.st1{fill:#FFFFFF;}
</style>
<g>
	<path class="st0" d="M430,20v160H20V20H430 M450,0H0v200h450V0L450,0z"/>
	<path class="st1" d="M175,150h20V70h60v80h20V50H175V150z M95,110h60V90H95V110z M355,50h-20v60h20V50z M375,50v80h-60V50h-20v100
		h100V50H375z M215,150h20V90h-20V150z M55,150h100v-20H75V70h80V50H55V150z"/>
</g>
</svg>
