<svg id="Слой_1" xmlns="http://www.w3.org/2000/svg" viewBox="0 0 221 292"><path d="M138 216.1c7.5-2.5 14.5-5.9 20.9-10l-11.5-15.8c-4.7 3-9.9 5.5-15.5 7.3-20.3 6.7-41.6 3.6-58.6-6.7l-11.4 15.9c13.5 8.5 29.2 13.4 45.4 13.8V271h-8v21h21v-21h-8v-50.4c8.6-.2 17.2-1.7 25.7-4.5zM115.3 276v11h-11v-11h11z" fill="#bcbcbc"/><path d="M203.3 224.8l-30.2-30.2c8.8-8.7 15.6-19.1 20.2-30.5l-18.6-6c-4.1 9.7-10.3 18.4-18.3 25.4l11.5 15.8c.5-.4 1-.9 1.5-1.4l30.5 30.5v17.3h21v-21h-17.6zm12.7 16h-11v-11h11v11z" fill="#9e9e9e"/><path d="M52.7 200.1l11.4-15.9c-8.2-7-14.9-15.8-19.2-26.3L26.4 164c4.8 12 12 22.5 20.9 31.1l-29.5 29.5H0v21h21v-17.3l29.9-29.9c.6.7 1.2 1.2 1.8 1.7zM16 240.8H5v-11h11v11z" fill="#fff"/><path d="M195.3 102.5c-12.2-37-46.1-60.7-83-61.8V21h8V0h-21v21h8v19.7c-8.5.2-17.2 1.7-25.7 4.5-45.3 14.9-70.8 62.7-58.9 108.2l18.5-6.1c-8.6-35.3 11.3-72 46.5-83.6 36.9-12.2 76.9 8 89 44.9 4.3 13 4.6 26.4 1.5 38.8l18.6 6c4.4-16.3 4.1-33.9-1.5-50.9zm-91-86.5V5h11v11h-11z" fill="#f4d77d"/></svg>