<svg xmlns="http://www.w3.org/2000/svg" viewBox="0 0 244.3 251.1"><path d="M185.1 195.6l38.2 38.2v17.3h21v-21h-17.6L188.6 192c13.5-14.8 22.2-34 23.5-55.2h-19.6c-2.7 34.4-30.3 61.9-64.7 64.7v19.6c22.2-1.4 42.3-10.8 57.3-25.5zm43.2 39.5h11v11h-11v-11z" fill="#fff"/><path d="M0 230.1v21h21v-17.3l38.2-38.2c15 14.6 35.1 24.1 57.3 25.5v-19.6c-34.4-2.7-61.9-30.3-64.7-64.7H32.2c1.3 21.2 10 40.5 23.5 55.2l-38.1 38.1H0zm5 5h11v11H5v-11z" fill="#9e9e9e"/><path d="M32.1 125.5h19.6c2.9-36.3 33.4-65 70.4-65s67.5 28.7 70.4 65h19.6c-2.9-46.3-40.8-83.2-87.5-84.4V21h8V0h-21v21h8v20.1C73 42.3 35 79.2 32.1 125.5zM116.6 16V5h11v11h-11z" fill="#f4d77d"/></svg>