<?xml version="1.0" encoding="utf-8"?>
<!-- Generator: Adobe Illustrator 21.0.0, SVG Export Plug-In . SVG Version: 6.00 Build 0)  -->
<svg version="1.1" id="Слой_1" xmlns="http://www.w3.org/2000/svg" xmlns:xlink="http://www.w3.org/1999/xlink" x="0px" y="0px"
	 viewBox="0 0 205 268.6" style="enable-background:new 0 0 205 268.6;" xml:space="preserve">
<style type="text/css">
	.st0{fill:#FFD62C;}
	.st1{fill:#FFFFFF;}
</style>
<rect x="24.8" y="49.6" class="st0" width="60.4" height="12.4"/>
<rect x="24.8" y="74.4" class="st0" width="60.4" height="12.4"/>
<rect x="24.8" y="99.2" class="st0" width="60.4" height="12.4"/>
<rect x="24.8" y="124.1" class="st0" width="60.4" height="12.4"/>
<path class="st1" d="M110,161.2L110,161.2l0-136.7h0v0H85.3V12.4h0V0H25v24.5H0v136.8L110,161.2L110,161.2z M37.4,12.4h35.5v12.1
	H37.4V12.4z M97.7,148.9H12.4v-112h85.3V148.9z M158.1,183.9v-12.4h-24v-10.2h-12.4v10.2h-24v49.6h48v24.8h-48v12.4h24v10.2h12.4
	v-10.2h24v-49.6h-48v-24.8H158.1z"/>
</svg>
