<?xml version="1.0" encoding="utf-8"?>
<!-- Generator: Adobe Illustrator 21.0.0, SVG Export Plug-In . SVG Version: 6.00 Build 0)  -->
<svg version="1.1" id="Слой_1" xmlns="http://www.w3.org/2000/svg" xmlns:xlink="http://www.w3.org/1999/xlink" x="0px" y="0px"
	 viewBox="0 0 193.2 211.4" style="enable-background:new 0 0 193.2 211.4;" xml:space="preserve">
<style type="text/css">
	.st0{fill:#FFD62C;}
	.st1{fill:#FFFFFF;}
</style>
<rect x="87.4" y="2.9" transform="matrix(-1.836970e-16 1 -1 -1.836970e-16 105.7087 -87.4477)" class="st0" width="18.3" height="12.4"/>
<rect x="174.9" y="96.4" class="st0" width="18.3" height="12.4"/>
<rect y="96.4" class="st0" width="18.3" height="12.4"/>
<rect x="155.6" y="25.5" transform="matrix(-0.634 0.7734 -0.7734 -0.634 293.6537 -75.5043)" class="st0" width="18.3" height="12.4"/>
<rect x="19.9" y="25.1" transform="matrix(0.6289 0.7775 -0.7775 0.6289 35.1001 -10.94)" class="st0" width="18.3" height="12.4"/>
<rect x="155.6" y="168.3" transform="matrix(-0.634 -0.7734 0.7734 -0.634 134.1674 412.4636)" class="st0" width="18.3" height="12.4"/>
<rect x="19.9" y="168.7" transform="matrix(0.6289 -0.7775 0.7775 0.6289 -125.2431 87.4789)" class="st0" width="18.3" height="12.4"/>
<path class="st1" d="M88.8,108.8h36.7V96.4H88.8V108.8z M125.4,119H80.1V86.1h45.3V73.7H67.7v57.7h57.7V119z M42.9,48.9v107.3h23.5
	v24.5h0v12.4h0h12.4h11.5v18.3h12.4v-18.3h11.5h12.4v-36.9h23.5V48.9H42.9z M114.3,180.8H78.8v-24.5h35.5V180.8z M137.8,143.9H55.3
	V61.3h82.5V143.9z"/>
</svg>
