<?xml version="1.0" encoding="utf-8"?>
<!-- Generator: Adobe Illustrator 21.0.0, SVG Export Plug-In . SVG Version: 6.00 Build 0)  -->
<svg version="1.1" id="Слой_1" xmlns="http://www.w3.org/2000/svg" xmlns:xlink="http://www.w3.org/1999/xlink" x="0px" y="0px"
	 viewBox="0 0 205 256.2" style="enable-background:new 0 0 205 256.2;" xml:space="preserve">
<style type="text/css">
	.st0{fill:#FFD62C;}
	.st1{fill:#FFFFFF;}
</style>
<rect x="119.7" y="144.5" class="st0" width="60.4" height="12.4"/>
<rect x="119.7" y="169.4" class="st0" width="60.4" height="12.4"/>
<rect x="119.7" y="194.2" class="st0" width="60.4" height="12.4"/>
<rect x="119.7" y="219" class="st0" width="60.4" height="12.4"/>
<path class="st1" d="M82.5,70.1H37.2V37.2h45.3V24.8H24.8v57.7h57.7V70.1z M45.8,59.9h36.7V47.5H45.8V59.9z M107.3,0H0v107.3h107.3
	V0z M94.9,94.9H12.4V12.4h82.5V94.9z M180.2,119.4V94.9h-12.4v0h-35.5v0h-12.4v24.5h-25v136.8h110v-0.1h0V119.4H180.2z M132.3,107.3
	h35.5v12.1h-35.5V107.3z M192.6,243.8h-85.3v-112h85.3V243.8z"/>
</svg>
