<svg id="Слой_1" xmlns="http://www.w3.org/2000/svg" xmlns:xlink="http://www.w3.org/1999/xlink" viewBox="0 0 450 200"><path d="M175 150h20V70h60v80h20V50H175v100zm-80-40h60V90H95v20zm260-60h-20v60h20V50zm20 0v80h-60V50h-20v100h100V50h-20zM215 150h20V90h-20v60zm-160 0h100v-20H75V70h80V50H55v100z" fill="#fff"/><path d="M430 20v160H20V20h410m20-20H0v200h450V0z" fill="#ffd600"/><defs><path id="SVGID_1_" d="M175 150h20V70h60v80h20V50H175v100zm-80-40h60V90H95v20zm260-60h-20v60h20V50zm20 0v80h-60V50h-20v100h100V50h-20zM215 150h20V90h-20v60zm-160 0h100v-20H75V70h80V50H55v100z"/></defs><clipPath id="SVGID_2_"><use xlink:href="#SVGID_1_" overflow="visible"/></clipPath><path transform="rotate(-180 47.84 100)" clip-path="url(#SVGID_2_)" d="M45 50h5.6v100H45z"/></svg>