<svg xmlns="http://www.w3.org/2000/svg" xmlns:xlink="http://www.w3.org/1999/xlink" width="939" height="120"><defs><path id="zr04a" d="M820 533v-5h95v5z"/><path id="zr04b" d="M680 533v-5h95v5z"/><path id="zr04c" d="M820 533v-80h5v80z"/><path id="zr04d" d="M805 573V453h5v120z"/><path id="zr04e" d="M770 573v-45h5v45z"/><path id="zr04f" d="M805 458v-5h20v5z"/><path id="zr04g" d="M770 573v-5h40v5z"/><path id="zr04h" d="M585 533v-5h95v5z"/><path id="zr04i" d="M445 533v-5h95v5z"/><path id="zr04j" d="M585 533v-80h5v80z"/><path id="zr04k" d="M570 573V453h5v120z"/><path id="zr04l" d="M535 573v-45h5v45z"/><path id="zr04m" d="M570 458v-5h20v5z"/><path id="zr04n" d="M535 573v-5h40v5z"/><path id="zr04o" d="M350 533v-5h95v5z"/><path id="zr04p" d="M210 533v-5h95v5z"/><path id="zr04q" d="M350 533v-80h5v80z"/><path id="zr04r" d="M335 573V453h5v120z"/><path id="zr04s" d="M300 573v-45h5v45z"/><path id="zr04t" d="M335 458v-5h20v5z"/><path id="zr04u" d="M300 573v-5h40v5z"/><path id="zr04v" d="M116 533v-5h95v5z"/><path id="zr04w" d="M-24 533v-5h95v5z"/><path id="zr04x" d="M116 533v-80h5v80z"/><path id="zr04y" d="M101 573V453h5v120z"/><path id="zr04z" d="M66 573v-45h5v45z"/><path id="zr04A" d="M101 458v-5h20v5z"/><path id="zr04B" d="M66 573v-5h40v5z"/></defs><use fill="#ffd62c" xlink:href="#zr04a" transform="translate(24 -453)"/><use fill="#ffd62c" xlink:href="#zr04b" transform="translate(24 -453)"/><use fill="#ffd62c" xlink:href="#zr04c" transform="translate(24 -453)"/><use fill="#ffd62c" xlink:href="#zr04d" transform="translate(24 -453)"/><use fill="#ffd62c" xlink:href="#zr04e" transform="translate(24 -453)"/><use fill="#ffd62c" xlink:href="#zr04f" transform="translate(24 -453)"/><use fill="#ffd62c" xlink:href="#zr04g" transform="translate(24 -453)"/><g fill="#ffd62c" transform="translate(24 -453)"><use xlink:href="#zr04h"/><use xlink:href="#zr04i"/><use xlink:href="#zr04j"/><use xlink:href="#zr04k"/><use xlink:href="#zr04l"/><use xlink:href="#zr04m"/><use xlink:href="#zr04n"/></g><g fill="#ffd62c" transform="translate(24 -453)"><use xlink:href="#zr04o"/><use xlink:href="#zr04p"/><use xlink:href="#zr04q"/><use xlink:href="#zr04r"/><use xlink:href="#zr04s"/><use xlink:href="#zr04t"/><use xlink:href="#zr04u"/></g><g fill="#ffd62c" transform="translate(24 -453)"><use xlink:href="#zr04v"/><use xlink:href="#zr04w"/><use xlink:href="#zr04x"/><use xlink:href="#zr04y"/><use xlink:href="#zr04z"/><use xlink:href="#zr04A"/><use xlink:href="#zr04B"/></g></svg>